<?xml version="1.0" encoding="iso-8859-1"?>
<!-- Generator: Adobe Illustrator 16.0.0, SVG Export Plug-In . SVG Version: 6.00 Build 0)  -->
<!DOCTYPE svg PUBLIC "-//W3C//DTD SVG 1.1//EN" "http://www.w3.org/Graphics/SVG/1.1/DTD/svg11.dtd">
<svg version="1.1" id="Capa_1" xmlns="http://www.w3.org/2000/svg" xmlns:xlink="http://www.w3.org/1999/xlink" x="0px" y="0px"
	 width="195.373px" height="195.373px" viewBox="0 0 195.373 195.373" style="enable-background:new 0 0 195.373 195.373;"
	 xml:space="preserve">
<g>
	<path d="M194.295,67.648c-1.047-0.892-2.545-1.011-3.714-0.268l-32.735,20.776l-8.477-18.365c-0.359-0.752-0.986-1.34-1.777-1.62
		c-0.78-0.28-1.663-0.231-2.412,0.131l-22.311,10.83l-10.997-16.517c5.134-4.208,8.123-10.413,8.123-17.135
		c0-12.31-10.004-22.311-22.313-22.311S75.371,33.172,75.371,45.481c0,6.722,2.986,12.933,8.126,17.135L72.954,78.484L50.119,68.261
		c-1.571-0.712-3.397-0.016-4.104,1.531L37.369,88.51L4.813,67.393c-1.148-0.743-2.67-0.649-3.718,0.244
		c-1.047,0.91-1.388,2.375-0.828,3.641l38.286,86.524c0.5,1.139,1.614,1.863,2.85,1.863h112.57c1.236,0,2.356-0.725,2.85-1.863
		l38.289-86.524C195.659,70.023,195.33,68.553,194.295,67.648z M145.04,75.3l7.496,16.236l-15.077,9.563l-11.112-16.721L145.04,75.3
		z M42.7,91.823l7.663-16.611l19.092,8.525l-11.886,17.893l-14.946-9.706C42.624,91.884,42.681,91.859,42.7,91.823z M151.951,153.43
		H43.415L10.202,78.329l46.558,30.205c1.428,0.92,3.343,0.536,4.29-0.896l29.313-44.1c0.454-0.697,0.627-1.571,0.436-2.399
		c-0.18-0.831-0.691-1.547-1.428-1.985c-4.862-2.959-7.77-8.074-7.77-13.679c0-8.866,7.209-16.076,16.076-16.076
		c8.851,0,16.078,7.21,16.078,16.076c0,5.605-2.917,10.732-7.77,13.679c-0.73,0.438-1.236,1.166-1.432,1.985
		c-0.17,0.828-0.018,1.689,0.445,2.399l28.947,43.541c0.938,1.425,2.838,1.827,4.269,0.913l47.021-29.843L151.951,153.43z
		 M94.345,74.712c1.428,0.953,1.814,2.901,0.861,4.327l-30.604,45.784c-0.597,0.896-1.583,1.383-2.594,1.383
		c-0.572,0-1.16-0.158-1.684-0.487l-21.61-13.828c-1.446-0.92-1.875-2.862-0.941-4.306c0.935-1.442,2.85-1.887,4.302-0.932
		l19.041,12.166L90.03,75.58C90.971,74.152,92.923,73.766,94.345,74.712z M155.361,169.085c0,1.724-1.407,3.118-3.118,3.118H43.123
		c-1.72,0-3.118-1.395-3.118-3.118c0-1.718,1.397-3.118,3.118-3.118h109.121C153.961,165.967,155.361,167.367,155.361,169.085z"/>
</g>
<g>
</g>
<g>
</g>
<g>
</g>
<g>
</g>
<g>
</g>
<g>
</g>
<g>
</g>
<g>
</g>
<g>
</g>
<g>
</g>
<g>
</g>
<g>
</g>
<g>
</g>
<g>
</g>
<g>
</g>
</svg>
