<svg xmlns="http://www.w3.org/2000/svg" xmlns:xlink="http://www.w3.org/1999/xlink" width="375" height="667" viewBox="0 0 375 667">
  <defs>
    <clipPath id="clip-path">
      <rect width="364.727" height="659" fill="none"/>
    </clipPath>
    <filter id="Rectangle_4" x="5" y="72" width="364.727" height="96" filterUnits="userSpaceOnUse">
      <feOffset dx="3" dy="3" input="SourceAlpha"/>
      <feGaussianBlur stdDeviation="3" result="blur"/>
      <feFlood flood-opacity="0.161"/>
      <feComposite operator="in" in2="blur"/>
      <feComposite in="SourceGraphic"/>
    </filter>
    <filter id="Rectangle_4-2" x="5" y="175" width="364.727" height="96" filterUnits="userSpaceOnUse">
      <feOffset dx="3" dy="3" input="SourceAlpha"/>
      <feGaussianBlur stdDeviation="3" result="blur-2"/>
      <feFlood flood-opacity="0.161"/>
      <feComposite operator="in" in2="blur-2"/>
      <feComposite in="SourceGraphic"/>
    </filter>
    <filter id="Rectangle_4-3" x="5" y="278" width="364.727" height="96" filterUnits="userSpaceOnUse">
      <feOffset dx="3" dy="3" input="SourceAlpha"/>
      <feGaussianBlur stdDeviation="3" result="blur-3"/>
      <feFlood flood-opacity="0.161"/>
      <feComposite operator="in" in2="blur-3"/>
      <feComposite in="SourceGraphic"/>
    </filter>
    <filter id="Rectangle_4-4" x="5" y="381" width="364.727" height="96" filterUnits="userSpaceOnUse">
      <feOffset dx="3" dy="3" input="SourceAlpha"/>
      <feGaussianBlur stdDeviation="3" result="blur-4"/>
      <feFlood flood-opacity="0.161"/>
      <feComposite operator="in" in2="blur-4"/>
      <feComposite in="SourceGraphic"/>
    </filter>
    <filter id="Rectangle_4-5" x="5" y="484" width="364.727" height="96" filterUnits="userSpaceOnUse">
      <feOffset dx="3" dy="3" input="SourceAlpha"/>
      <feGaussianBlur stdDeviation="3" result="blur-5"/>
      <feFlood flood-opacity="0.161"/>
      <feComposite operator="in" in2="blur-5"/>
      <feComposite in="SourceGraphic"/>
    </filter>
    <filter id="Rectangle_4-6" x="5" y="587" width="364.727" height="96" filterUnits="userSpaceOnUse">
      <feOffset dx="3" dy="3" input="SourceAlpha"/>
      <feGaussianBlur stdDeviation="3" result="blur-6"/>
      <feFlood flood-opacity="0.161"/>
      <feComposite operator="in" in2="blur-6"/>
      <feComposite in="SourceGraphic"/>
    </filter>
    <filter id="Rectangle_4-7" x="5" y="690" width="364.727" height="96" filterUnits="userSpaceOnUse">
      <feOffset dx="3" dy="3" input="SourceAlpha"/>
      <feGaussianBlur stdDeviation="3" result="blur-7"/>
      <feFlood flood-opacity="0.161"/>
      <feComposite operator="in" in2="blur-7"/>
      <feComposite in="SourceGraphic"/>
    </filter>
    <filter id="teal_circle" x="277" y="374" width="66" height="66" filterUnits="userSpaceOnUse">
      <feOffset dy="12" input="SourceAlpha"/>
      <feGaussianBlur stdDeviation="6" result="blur-8"/>
      <feFlood flood-opacity="0.259"/>
      <feComposite operator="in" in2="blur-8"/>
      <feComposite in="SourceGraphic"/>
    </filter>
    <filter id="teal_circle-2" x="277" y="432" width="66" height="66" filterUnits="userSpaceOnUse">
      <feOffset dy="12" input="SourceAlpha"/>
      <feGaussianBlur stdDeviation="6" result="blur-9"/>
      <feFlood flood-opacity="0.259"/>
      <feComposite operator="in" in2="blur-9"/>
      <feComposite in="SourceGraphic"/>
    </filter>
    <filter id="teal_circle-3" x="277" y="316" width="66" height="66" filterUnits="userSpaceOnUse">
      <feOffset dy="12" input="SourceAlpha"/>
      <feGaussianBlur stdDeviation="6" result="blur-10"/>
      <feFlood flood-opacity="0.259"/>
      <feComposite operator="in" in2="blur-10"/>
      <feComposite in="SourceGraphic"/>
    </filter>
    <filter id="teal_circle-4" x="219" y="490" width="66" height="66" filterUnits="userSpaceOnUse">
      <feOffset dy="12" input="SourceAlpha"/>
      <feGaussianBlur stdDeviation="6" result="blur-11"/>
      <feFlood flood-opacity="0.259"/>
      <feComposite operator="in" in2="blur-11"/>
      <feComposite in="SourceGraphic"/>
    </filter>
    <filter id="teal_circle-5" x="277" y="490" width="66" height="66" filterUnits="userSpaceOnUse">
      <feOffset dy="12" input="SourceAlpha"/>
      <feGaussianBlur stdDeviation="6" result="blur-12"/>
      <feFlood flood-opacity="0.259"/>
      <feComposite operator="in" in2="blur-12"/>
      <feComposite in="SourceGraphic"/>
    </filter>
    <filter id="teal_circle-6" x="264" y="548" width="92" height="92" filterUnits="userSpaceOnUse">
      <feOffset dy="12" input="SourceAlpha"/>
      <feGaussianBlur stdDeviation="6" result="blur-13"/>
      <feFlood flood-opacity="0.259"/>
      <feComposite operator="in" in2="blur-13"/>
      <feComposite in="SourceGraphic"/>
    </filter>
    <filter id="Rectangle_7" x="-9" y="-7" width="393" height="68" filterUnits="userSpaceOnUse">
      <feOffset dy="3" input="SourceAlpha"/>
      <feGaussianBlur stdDeviation="3" result="blur-14"/>
      <feFlood flood-opacity="0.161"/>
      <feComposite operator="in" in2="blur-14"/>
      <feComposite in="SourceGraphic"/>
    </filter>
    <clipPath id="clip-Game_Admin:_Opened_Menu">
      <rect width="375" height="667"/>
    </clipPath>
    <clipPath id="clip">
      <use xlink:href="#fill"/>
    </clipPath>
    <clipPath id="clip-2">
      <use xlink:href="#fill-2"/>
    </clipPath>
  </defs>
  <g id="Game_Admin:_Opened_Menu" data-name="Game Admin: Opened Menu" clip-path="url(#clip-Game_Admin:_Opened_Menu)">
    <rect width="375" height="667" fill="#f5f5f5"/>
    <g id="Repeat_Grid_3" data-name="Repeat Grid 3" transform="translate(5 65)" clip-path="url(#clip-path)">
      <g transform="translate(-8 -65)">
        <g id="Group_343" data-name="Group 343" transform="translate(-6 -107)">
          <g transform="matrix(1, 0, 0, 1, 9, 107)" filter="url(#Rectangle_4)">
            <g id="Rectangle_4-8" data-name="Rectangle 4" transform="translate(11 78)" fill="#fff" stroke="#3a577f" stroke-width="2">
              <rect width="346.727" height="78" rx="9" stroke="none"/>
              <rect x="1" y="1" width="344.727" height="76" rx="8" fill="none"/>
            </g>
          </g>
        </g>
        <g id="Group_1" data-name="Group 1" transform="translate(38 65)">
          <rect id="Rectangle_5" data-name="Rectangle 5" width="71" height="27" fill="#fff"/>
          <text id="names" transform="translate(8 19)" fill="#2f2d3f" font-size="18" font-family="SegoeUI, Segoe UI"><tspan x="0" y="0">Fred</tspan></text>
        </g>
        <g id="Ellipse_2" data-name="Ellipse 2" transform="translate(88.868 92)" fill="#fff" stroke="#3a577f" stroke-width="1">
          <circle cx="25.5" cy="25.5" r="25.5" stroke="none"/>
          <circle cx="25.5" cy="25.5" r="25" fill="none"/>
        </g>
        <text id="scores" transform="translate(289.737 138)" fill="#e63622" font-size="49" font-family="SegoeUI, Segoe UI"><tspan x="-86.348" y="0">+24</tspan></text>
        <text id="_65" data-name="65" transform="translate(321.727 138)" fill="#a13124" font-size="20" font-family="SegoeUI, Segoe UI"><tspan x="0" y="0">67</tspan></text>
        <path id="Path_1" data-name="Path 1" d="M581.3,350h16l4-12-8,4-4-8-4,8-8-4Z" transform="translate(-534.3 -223)" fill="#b5b5b5" stroke="#2f2d3f" stroke-linejoin="round" stroke-width="2"/>
        <path id="Path_2" data-name="Path 2" d="M156.932,348.434" transform="translate(-93 -225)" fill="none" stroke="#707070" stroke-width="1"/>
      </g>
      <g transform="translate(-8 38)">
        <g id="Group_343-2" data-name="Group 343" transform="translate(-6 -107)">
          <g transform="matrix(1, 0, 0, 1, 9, 4)" filter="url(#Rectangle_4-2)">
            <g id="Rectangle_4-9" data-name="Rectangle 4" transform="translate(11 181)" fill="#fff" stroke="#3a577f" stroke-width="2">
              <rect width="346.727" height="78" rx="9" stroke="none"/>
              <rect x="1" y="1" width="344.727" height="76" rx="8" fill="none"/>
            </g>
          </g>
        </g>
        <g id="Group_1-2" data-name="Group 1" transform="translate(38 65)">
          <rect id="Rectangle_5-2" data-name="Rectangle 5" width="71" height="27" fill="#fff"/>
          <text id="Name" transform="translate(8 19)" fill="#2f2d3f" font-size="18" font-family="SegoeUI, Segoe UI"><tspan x="0" y="0">Paulo</tspan></text>
        </g>
        <g id="Ellipse_2-2" data-name="Ellipse 2" transform="translate(88.868 92)" fill="#fff" stroke="#3a577f" stroke-width="1">
          <circle cx="25.5" cy="25.5" r="25.5" stroke="none"/>
          <circle cx="25.5" cy="25.5" r="25" fill="none"/>
        </g>
        <text id="_24" data-name="+24" transform="translate(289.737 138)" fill="#e63622" font-size="49" font-family="SegoeUI, Segoe UI"><tspan x="-59.934" y="0">+5</tspan></text>
        <text id="numbers" transform="translate(321.727 138)" fill="#a13124" font-size="20" font-family="SegoeUI, Segoe UI"><tspan x="0" y="0">37</tspan></text>
        <path id="Path_1-2" data-name="Path 1" d="M581.3,350h16l4-12-8,4-4-8-4,8-8-4Z" transform="translate(-534.3 -223)" fill="#b5b5b5" stroke="#2f2d3f" stroke-linejoin="round" stroke-width="2"/>
        <path id="Path_2-2" data-name="Path 2" d="M156.932,348.434" transform="translate(-93 -225)" fill="none" stroke="#707070" stroke-width="1"/>
      </g>
      <g transform="translate(-8 141)">
        <g id="Group_343-3" data-name="Group 343" transform="translate(-6 -107)">
          <g transform="matrix(1, 0, 0, 1, 9, -99)" filter="url(#Rectangle_4-3)">
            <g id="Rectangle_4-10" data-name="Rectangle 4" transform="translate(11 284)" fill="#fff" stroke="#3a577f" stroke-width="2">
              <rect width="346.727" height="78" rx="9" stroke="none"/>
              <rect x="1" y="1" width="344.727" height="76" rx="8" fill="none"/>
            </g>
          </g>
        </g>
        <g id="Group_1-3" data-name="Group 1" transform="translate(38 65)">
          <rect id="Rectangle_5-3" data-name="Rectangle 5" width="71" height="27" fill="#fff"/>
          <text id="Name-2" data-name="Name" transform="translate(8 19)" fill="#2f2d3f" font-size="18" font-family="SegoeUI, Segoe UI"><tspan x="0" y="0">Max</tspan></text>
        </g>
        <g id="Ellipse_2-3" data-name="Ellipse 2" transform="translate(88.868 92)" fill="#fff" stroke="#3a577f" stroke-width="1">
          <circle cx="25.5" cy="25.5" r="25.5" stroke="none"/>
          <circle cx="25.5" cy="25.5" r="25" fill="none"/>
        </g>
        <text id="_24-2" data-name="+24" transform="translate(289.737 138)" fill="#e63622" font-size="49" font-family="SegoeUI, Segoe UI"><tspan x="-86.348" y="0">+12</tspan></text>
        <text id="_65-2" data-name="65" transform="translate(321.727 138)" fill="#a13124" font-size="20" font-family="SegoeUI, Segoe UI"><tspan x="0" y="0">5</tspan></text>
        <path id="Path_1-3" data-name="Path 1" d="M581.3,350h16l4-12-8,4-4-8-4,8-8-4Z" transform="translate(-534.3 -223)" fill="#b5b5b5" stroke="#2f2d3f" stroke-linejoin="round" stroke-width="2"/>
        <path id="Path_2-3" data-name="Path 2" d="M156.932,348.434" transform="translate(-93 -225)" fill="none" stroke="#707070" stroke-width="1"/>
      </g>
      <g transform="translate(-8 244)">
        <g id="Group_343-4" data-name="Group 343" transform="translate(-6 -107)">
          <g transform="matrix(1, 0, 0, 1, 9, -202)" filter="url(#Rectangle_4-4)">
            <g id="Rectangle_4-11" data-name="Rectangle 4" transform="translate(11 387)" fill="#fff" stroke="#3a577f" stroke-width="2">
              <rect width="346.727" height="78" rx="9" stroke="none"/>
              <rect x="1" y="1" width="344.727" height="76" rx="8" fill="none"/>
            </g>
          </g>
        </g>
        <g id="Group_1-4" data-name="Group 1" transform="translate(38 65)">
          <rect id="Rectangle_5-4" data-name="Rectangle 5" width="71" height="27" fill="#fff"/>
          <text id="Name-3" data-name="Name" transform="translate(8 19)" fill="#2f2d3f" font-size="18" font-family="SegoeUI, Segoe UI"><tspan x="0" y="0">Frank</tspan></text>
        </g>
        <g id="Ellipse_2-4" data-name="Ellipse 2" transform="translate(88.868 92)" fill="#fff" stroke="#3a577f" stroke-width="1">
          <circle cx="25.5" cy="25.5" r="25.5" stroke="none"/>
          <circle cx="25.5" cy="25.5" r="25" fill="none"/>
        </g>
        <text id="_24-3" data-name="+24" transform="translate(289.737 138)" fill="#e63622" font-size="49" font-family="SegoeUI, Segoe UI"><tspan x="-46.009" y="0">-2</tspan></text>
        <text id="_65-3" data-name="65" transform="translate(321.727 138)" fill="#a13124" font-size="20" font-family="SegoeUI, Segoe UI"><tspan x="0" y="0">36</tspan></text>
        <path id="Path_1-4" data-name="Path 1" d="M581.3,350h16l4-12-8,4-4-8-4,8-8-4Z" transform="translate(-534.3 -223)" fill="#b5b5b5" stroke="#2f2d3f" stroke-linejoin="round" stroke-width="2"/>
        <path id="Path_2-4" data-name="Path 2" d="M156.932,348.434" transform="translate(-93 -225)" fill="none" stroke="#707070" stroke-width="1"/>
      </g>
      <g transform="translate(-8 347)">
        <g id="Group_343-5" data-name="Group 343" transform="translate(-6 -107)">
          <g transform="matrix(1, 0, 0, 1, 9, -305)" filter="url(#Rectangle_4-5)">
            <g id="Rectangle_4-12" data-name="Rectangle 4" transform="translate(11 490)" fill="#fff" stroke="#3a577f" stroke-width="2">
              <rect width="346.727" height="78" rx="9" stroke="none"/>
              <rect x="1" y="1" width="344.727" height="76" rx="8" fill="none"/>
            </g>
          </g>
        </g>
        <g id="Group_1-5" data-name="Group 1" transform="translate(38 65)">
          <rect id="Rectangle_5-5" data-name="Rectangle 5" width="71" height="27" fill="#fff"/>
          <text id="Name-4" data-name="Name" transform="translate(8 19)" fill="#2f2d3f" font-size="18" font-family="SegoeUI, Segoe UI"><tspan x="0" y="0">Remz</tspan></text>
        </g>
        <g id="Ellipse_2-5" data-name="Ellipse 2" transform="translate(88.868 92)" fill="#fff" stroke="#3a577f" stroke-width="1">
          <circle cx="25.5" cy="25.5" r="25.5" stroke="none"/>
          <circle cx="25.5" cy="25.5" r="25" fill="none"/>
        </g>
        <text id="_24-4" data-name="+24" transform="translate(289.737 138)" fill="#e63622" font-size="49" font-family="SegoeUI, Segoe UI"><tspan x="-112.762" y="0">+110</tspan></text>
        <text id="_65-4" data-name="65" transform="translate(321.727 138)" fill="#a13124" font-size="20" font-family="SegoeUI, Segoe UI"><tspan x="0" y="0">0</tspan></text>
        <path id="Path_1-5" data-name="Path 1" d="M581.3,350h16l4-12-8,4-4-8-4,8-8-4Z" transform="translate(-534.3 -223)" fill="#b5b5b5" stroke="#2f2d3f" stroke-linejoin="round" stroke-width="2"/>
        <path id="Path_2-5" data-name="Path 2" d="M156.932,348.434" transform="translate(-93 -225)" fill="none" stroke="#707070" stroke-width="1"/>
      </g>
      <g transform="translate(-8 450)">
        <g id="Group_343-6" data-name="Group 343" transform="translate(-6 -107)">
          <g transform="matrix(1, 0, 0, 1, 9, -408)" filter="url(#Rectangle_4-6)">
            <g id="Rectangle_4-13" data-name="Rectangle 4" transform="translate(11 593)" fill="#fff" stroke="#3a577f" stroke-width="2">
              <rect width="346.727" height="78" rx="9" stroke="none"/>
              <rect x="1" y="1" width="344.727" height="76" rx="8" fill="none"/>
            </g>
          </g>
        </g>
        <g id="Group_1-6" data-name="Group 1" transform="translate(38 65)">
          <rect id="Rectangle_5-6" data-name="Rectangle 5" width="71" height="27" fill="#fff"/>
          <text id="Name-5" data-name="Name" transform="translate(8 19)" fill="#2f2d3f" font-size="18" font-family="SegoeUI, Segoe UI"><tspan x="0" y="0">Marie</tspan></text>
        </g>
        <g id="Ellipse_2-6" data-name="Ellipse 2" transform="translate(88.868 92)" fill="#fff" stroke="#3a577f" stroke-width="1">
          <circle cx="25.5" cy="25.5" r="25.5" stroke="none"/>
          <circle cx="25.5" cy="25.5" r="25" fill="none"/>
        </g>
        <text id="_24-5" data-name="+24" transform="translate(289.737 138)" fill="#e63622" font-size="49" font-family="SegoeUI, Segoe UI"><tspan x="-59.934" y="0">+1</tspan></text>
        <text id="_65-5" data-name="65" transform="translate(321.727 138)" fill="#a13124" font-size="20" font-family="SegoeUI, Segoe UI"><tspan x="0" y="0">-2</tspan></text>
        <path id="Path_1-6" data-name="Path 1" d="M581.3,350h16l4-12-8,4-4-8-4,8-8-4Z" transform="translate(-534.3 -223)" fill="#b5b5b5" stroke="#2f2d3f" stroke-linejoin="round" stroke-width="2"/>
        <path id="Path_2-6" data-name="Path 2" d="M156.932,348.434" transform="translate(-93 -225)" fill="none" stroke="#707070" stroke-width="1"/>
      </g>
      <g transform="translate(-8 553)">
        <g id="Group_343-7" data-name="Group 343" transform="translate(-6 -107)">
          <g transform="matrix(1, 0, 0, 1, 9, -511)" filter="url(#Rectangle_4-7)">
            <g id="Rectangle_4-14" data-name="Rectangle 4" transform="translate(11 696)" fill="#fff" stroke="#3a577f" stroke-width="2">
              <rect width="346.727" height="78" rx="9" stroke="none"/>
              <rect x="1" y="1" width="344.727" height="76" rx="8" fill="none"/>
            </g>
          </g>
        </g>
        <g id="Group_1-7" data-name="Group 1" transform="translate(38 65)">
          <rect id="Rectangle_5-7" data-name="Rectangle 5" width="71" height="27" fill="#fff"/>
          <text id="Name-6" data-name="Name" transform="translate(8 19)" fill="#2f2d3f" font-size="18" font-family="SegoeUI, Segoe UI"><tspan x="0" y="0">Julie</tspan></text>
        </g>
        <g id="Ellipse_2-7" data-name="Ellipse 2" transform="translate(88.868 92)" fill="#fff" stroke="#3a577f" stroke-width="1">
          <circle cx="25.5" cy="25.5" r="25.5" stroke="none"/>
          <circle cx="25.5" cy="25.5" r="25" fill="none"/>
        </g>
        <text id="_24-6" data-name="+24" transform="translate(289.737 138)" fill="#e63622" font-size="49" font-family="SegoeUI, Segoe UI"><tspan x="-86.348" y="0">+44</tspan></text>
        <text id="_65-6" data-name="65" transform="translate(321.727 138)" fill="#a13124" font-size="20" font-family="SegoeUI, Segoe UI"><tspan x="0" y="0">110</tspan></text>
        <path id="Path_1-7" data-name="Path 1" d="M581.3,350h16l4-12-8,4-4-8-4,8-8-4Z" transform="translate(-534.3 -223)" fill="#b5b5b5" stroke="#2f2d3f" stroke-linejoin="round" stroke-width="2"/>
        <path id="Path_2-7" data-name="Path 2" d="M156.932,348.434" transform="translate(-93 -225)" fill="none" stroke="#707070" stroke-width="1"/>
      </g>
    </g>
    <rect id="Rectangle_22" data-name="Rectangle 22" width="375" height="622" transform="translate(0 45)" fill="rgba(58,87,127,0.8)"/>
    <g id="Symbol_19_1" data-name="Symbol 19 – 1">
      <g id="Symbol_17_1" data-name="Symbol 17 – 1" transform="translate(141 -182)">
        <g transform="matrix(1, 0, 0, 1, -141, 182)" filter="url(#teal_circle)">
          <circle id="teal_circle-7" data-name="teal circle" cx="15" cy="15" r="15" transform="translate(295 380)" fill="#2f2d3f"/>
        </g>
        <path id="Path_3" data-name="Path 3" d="M940.224,780.745l-2.031-2.354V767.2h4.077v11.193Z" transform="translate(51.451 -635.23) rotate(45)" fill="#fff" stroke="#fff" stroke-linejoin="round" stroke-width="2"/>
      </g>
      <g id="Symbol_16_1" data-name="Symbol 16 – 1" transform="translate(141 -83)">
        <g transform="matrix(1, 0, 0, 1, -141, 83)" filter="url(#teal_circle-2)">
          <circle id="teal_circle-8" data-name="teal circle" cx="15" cy="15" r="15" transform="translate(295 438)" fill="#2f2d3f"/>
        </g>
        <g id="Group_345" data-name="Group 345" transform="translate(-66 -93)">
          <line id="Line_4" data-name="Line 4" y2="13.126" transform="translate(229.047 622)" fill="none" stroke="#fff" stroke-linecap="square" stroke-width="1"/>
          <rect id="Rectangle_8" data-name="Rectangle 8" width="1.79" height="1.79" transform="translate(229.644 622.597)" fill="#fff"/>
          <rect id="Rectangle_9" data-name="Rectangle 9" width="1.79" height="1.79" transform="translate(231.434 624.387)" fill="#fff"/>
          <rect id="Rectangle_10" data-name="Rectangle 10" width="1.79" height="1.79" transform="translate(229.644 626.176)" fill="#fff"/>
          <rect id="Rectangle_11" data-name="Rectangle 11" width="1.79" height="1.79" transform="translate(231.434 627.966)" fill="#fff"/>
          <line id="Line_5" data-name="Line 5" y2="13.126" transform="translate(240.98 622)" fill="none" stroke="#fff" stroke-linecap="square" stroke-width="1"/>
          <rect id="Rectangle_12" data-name="Rectangle 12" width="1.79" height="1.79" transform="translate(233.223 622.597)" fill="#fff"/>
          <rect id="Rectangle_13" data-name="Rectangle 13" width="1.79" height="1.79" transform="translate(235.013 624.387)" fill="#fff"/>
          <rect id="Rectangle_14" data-name="Rectangle 14" width="1.79" height="1.79" transform="translate(233.223 626.176)" fill="#fff"/>
          <rect id="Rectangle_15" data-name="Rectangle 15" width="1.79" height="1.79" transform="translate(235.013 627.966)" fill="#fff"/>
          <rect id="Rectangle_16" data-name="Rectangle 16" width="1.79" height="1.79" transform="translate(236.803 622.597)" fill="#fff"/>
          <rect id="Rectangle_17" data-name="Rectangle 17" width="1.79" height="1.79" transform="translate(238.593 624.387)" fill="#fff"/>
          <rect id="Rectangle_18" data-name="Rectangle 18" width="1.79" height="1.79" transform="translate(236.803 626.176)" fill="#fff"/>
          <rect id="Rectangle_19" data-name="Rectangle 19" width="1.79" height="1.79" transform="translate(238.593 627.966)" fill="#fff"/>
        </g>
      </g>
      <g id="Symbol_15_1" data-name="Symbol 15 – 1" transform="translate(96 -240)">
        <g transform="matrix(1, 0, 0, 1, -96, 240)" filter="url(#teal_circle-3)">
          <circle id="teal_circle-9" data-name="teal circle" cx="15" cy="15" r="15" transform="translate(295 322)" fill="#2f2d3f"/>
        </g>
        <circle id="Ellipse_3" data-name="Ellipse 3" cx="3" cy="3" r="3" transform="translate(204 574)" fill="#fff"/>
        <circle id="Ellipse_4" data-name="Ellipse 4" cx="3" cy="3" r="3" transform="translate(216 567)" fill="#fff"/>
        <circle id="Ellipse_5" data-name="Ellipse 5" cx="3" cy="3" r="3" transform="translate(216 581)" fill="#fff"/>
        <line id="Line_6" data-name="Line 6" y1="7" x2="12" transform="translate(207 570)" fill="none" stroke="#fff" stroke-width="2"/>
        <line id="Line_7" data-name="Line 7" x2="12" y2="7" transform="translate(207 577)" fill="none" stroke="#fff" stroke-width="2"/>
      </g>
      <g id="Symbol_13_1" data-name="Symbol 13 – 1" transform="translate(37 -25)">
        <g id="Small_button" data-name="Small button">
          <g transform="matrix(1, 0, 0, 1, -37, 25)" filter="url(#teal_circle-4)">
            <circle id="teal_circle-10" data-name="teal circle" cx="15" cy="15" r="15" transform="translate(237 496)" fill="#2f2d3f"/>
          </g>
        </g>
        <path id="Path_4" data-name="Path 4" d="M1096,535l4-4-1,4,1,4-.542-.542Z" transform="translate(-886 1)" fill="#fff"/>
        <path id="Path_5" data-name="Path 5" d="M1096,535l4-4-1,4,1,4-.542-.542Z" transform="translate(-881 1)" fill="#fff"/>
      </g>
      <g id="Symbol_14_1" data-name="Symbol 14 – 1" transform="translate(51 -66)">
        <g id="Small_button-2" data-name="Small button" transform="translate(44 41)">
          <g transform="matrix(1, 0, 0, 1, -95, 25)" filter="url(#teal_circle-5)">
            <circle id="teal_circle-11" data-name="teal circle" cx="15" cy="15" r="15" transform="translate(295 496)" fill="#2f2d3f"/>
          </g>
        </g>
        <path id="Path_6" data-name="Path 6" d="M1171,605h-10V590h7l3,3Z" transform="translate(-907 -21)" fill="none" stroke="#fff" stroke-width="1"/>
        <line id="Line_8" data-name="Line 8" x2="6" transform="translate(256 573)" fill="none" stroke="#fff" stroke-width="1"/>
        <line id="Line_9" data-name="Line 9" x2="6" transform="translate(256 575)" fill="none" stroke="#fff" stroke-width="1"/>
        <line id="Line_10" data-name="Line 10" x2="6" transform="translate(256 577)" fill="none" stroke="#fff" stroke-width="1"/>
        <line id="Line_11" data-name="Line 11" x2="6" transform="translate(256 579)" fill="none" stroke="#fff" stroke-width="1"/>
        <line id="Line_12" data-name="Line 12" x2="6" transform="translate(256 581)" fill="none" stroke="#fff" stroke-width="1"/>
        <line id="Line_13" data-name="Line 13" y1="3" x2="3" transform="translate(262 568)" fill="none" stroke="#ea684b" stroke-linecap="round" stroke-width="1"/>
        <line id="Line_14" data-name="Line 14" x2="3" y2="3" transform="translate(262 568)" fill="none" stroke="#ea684b" stroke-linecap="round" stroke-width="1"/>
        <g id="Rectangle_20" data-name="Rectangle 20" transform="translate(262 569.2)" fill="#fff" stroke="#ea684b" stroke-linecap="round" stroke-linejoin="round" stroke-width="1">
          <rect id="fill" width="3" height="0.6" stroke="none"/>
          <path d="M0,0.10000002384185791h3M2.5,0v0.6000000238418579M3,0.5h-3M0.5,0.6000000238418579v-0.6000000238418579" fill="none" clip-path="url(#clip)"/>
        </g>
        <g id="Rectangle_21" data-name="Rectangle 21" transform="translate(263.8 568) rotate(90)" fill="#fff" stroke="#ea684b" stroke-linecap="round" stroke-linejoin="round" stroke-width="1">
          <rect id="fill-2" width="3" height="0.6" stroke="none"/>
          <path d="M0,0.10000002384185791h3M2.5,0v0.6000000238418579M3,0.5h-3M0.5,0.6000000238418579v-0.6000000238418579" fill="none" clip-path="url(#clip-2)"/>
        </g>
      </g>
      <g id="Symbol_18_1" data-name="Symbol 18 – 1" transform="translate(-9 11)">
        <g transform="matrix(1, 0, 0, 1, 9, -11)" filter="url(#teal_circle-6)">
          <circle id="teal_circle-12" data-name="teal circle" cx="28" cy="28" r="28" transform="translate(282 554)" fill="#ea684b"/>
        </g>
        <line id="Line_15" data-name="Line 15" y1="21" x2="21" transform="translate(308.5 560.5)" fill="none" stroke="#f5f5f5" stroke-width="3"/>
        <line id="Line_16" data-name="Line 16" x1="21" y1="21" transform="translate(308.5 560.5)" fill="none" stroke="#f5f5f5" stroke-width="3"/>
      </g>
    </g>
    <g id="Symbol_72_1" data-name="Symbol 72 – 1" transform="translate(0 -1)">
      <g id="Header_Round_Picker" data-name="Header Round Picker" transform="translate(0 -1)">
        <g transform="matrix(1, 0, 0, 1, 0, 2)" filter="url(#Rectangle_7)">
          <rect id="Rectangle_7-2" data-name="Rectangle 7" width="375" height="50" transform="translate(0 -1)" fill="#2f2d3f"/>
        </g>
        <text id="Round_3" data-name="Round 3" transform="translate(188 35)" fill="#fff" font-size="33" font-family="JavaneseText, Javanese Text"><tspan x="0" y="0">Round 3</tspan></text>
        <g id="path">
          <path id="path-2" data-name="path" d="M7,10l5,5,5-5Z" transform="translate(317 17)" fill="#fff" fill-rule="evenodd"/>
        </g>
      </g>
      <g id="path-3" data-name="path" transform="translate(6 4)">
        <path id="path-4" data-name="path" d="M20,11H7.8l5.6-5.6L12,4,4,12l8,8,1.4-1.4L7.8,13H20V11Z" transform="translate(9 10)" fill="#fff" fill-rule="evenodd"/>
      </g>
    </g>
  </g>
</svg>
