<svg xmlns="http://www.w3.org/2000/svg" xmlns:xlink="http://www.w3.org/1999/xlink" width="375" height="667" viewBox="0 0 375 667">
  <defs>
    <clipPath id="clip-path">
      <rect width="364.727" height="659" fill="none"/>
    </clipPath>
    <filter id="Rectangle_4" x="5" y="72" width="364.727" height="96" filterUnits="userSpaceOnUse">
      <feOffset dx="3" dy="3" input="SourceAlpha"/>
      <feGaussianBlur stdDeviation="3" result="blur"/>
      <feFlood flood-opacity="0.161"/>
      <feComposite operator="in" in2="blur"/>
      <feComposite in="SourceGraphic"/>
    </filter>
    <filter id="Rectangle_4-2" x="5" y="175" width="364.727" height="96" filterUnits="userSpaceOnUse">
      <feOffset dx="3" dy="3" input="SourceAlpha"/>
      <feGaussianBlur stdDeviation="3" result="blur-2"/>
      <feFlood flood-opacity="0.161"/>
      <feComposite operator="in" in2="blur-2"/>
      <feComposite in="SourceGraphic"/>
    </filter>
    <filter id="Rectangle_4-3" x="5" y="278" width="364.727" height="96" filterUnits="userSpaceOnUse">
      <feOffset dx="3" dy="3" input="SourceAlpha"/>
      <feGaussianBlur stdDeviation="3" result="blur-3"/>
      <feFlood flood-opacity="0.161"/>
      <feComposite operator="in" in2="blur-3"/>
      <feComposite in="SourceGraphic"/>
    </filter>
    <filter id="Rectangle_4-4" x="5" y="381" width="364.727" height="96" filterUnits="userSpaceOnUse">
      <feOffset dx="3" dy="3" input="SourceAlpha"/>
      <feGaussianBlur stdDeviation="3" result="blur-4"/>
      <feFlood flood-opacity="0.161"/>
      <feComposite operator="in" in2="blur-4"/>
      <feComposite in="SourceGraphic"/>
    </filter>
    <filter id="Rectangle_4-5" x="5" y="484" width="364.727" height="96" filterUnits="userSpaceOnUse">
      <feOffset dx="3" dy="3" input="SourceAlpha"/>
      <feGaussianBlur stdDeviation="3" result="blur-5"/>
      <feFlood flood-opacity="0.161"/>
      <feComposite operator="in" in2="blur-5"/>
      <feComposite in="SourceGraphic"/>
    </filter>
    <filter id="Rectangle_4-6" x="5" y="587" width="364.727" height="96" filterUnits="userSpaceOnUse">
      <feOffset dx="3" dy="3" input="SourceAlpha"/>
      <feGaussianBlur stdDeviation="3" result="blur-6"/>
      <feFlood flood-opacity="0.161"/>
      <feComposite operator="in" in2="blur-6"/>
      <feComposite in="SourceGraphic"/>
    </filter>
    <filter id="Rectangle_4-7" x="5" y="690" width="364.727" height="96" filterUnits="userSpaceOnUse">
      <feOffset dx="3" dy="3" input="SourceAlpha"/>
      <feGaussianBlur stdDeviation="3" result="blur-7"/>
      <feFlood flood-opacity="0.161"/>
      <feComposite operator="in" in2="blur-7"/>
      <feComposite in="SourceGraphic"/>
    </filter>
    <filter id="teal_circle" x="264" y="548" width="92" height="92" filterUnits="userSpaceOnUse">
      <feOffset dy="12" input="SourceAlpha"/>
      <feGaussianBlur stdDeviation="6" result="blur-8"/>
      <feFlood flood-opacity="0.259"/>
      <feComposite operator="in" in2="blur-8"/>
      <feComposite in="SourceGraphic"/>
    </filter>
    <clipPath id="clip-path-2">
      <rect width="29" height="17" fill="none"/>
    </clipPath>
    <filter id="Rectangle_7" x="-9" y="-7" width="393" height="68" filterUnits="userSpaceOnUse">
      <feOffset dy="3" input="SourceAlpha"/>
      <feGaussianBlur stdDeviation="3" result="blur-9"/>
      <feFlood flood-opacity="0.161"/>
      <feComposite operator="in" in2="blur-9"/>
      <feComposite in="SourceGraphic"/>
    </filter>
    <clipPath id="clip-Game_Admin:_Read_mode">
      <rect width="375" height="667"/>
    </clipPath>
  </defs>
  <g id="Game_Admin:_Read_mode" data-name="Game Admin: Read mode" clip-path="url(#clip-Game_Admin:_Read_mode)">
    <rect width="375" height="667" fill="#fff"/>
    <text id="Round_3" data-name="Round 3" transform="translate(188 31)" fill="#fff" font-size="33" font-family="JavaneseText, Javanese Text"><tspan x="0" y="0">Round 3</tspan></text>
    <g id="path" transform="translate(0 -4)">
      <path id="path-2" data-name="path" d="M7,10l5,5,5-5Z" transform="translate(317 17)" fill="#fff" fill-rule="evenodd"/>
    </g>
    <g id="Repeat_Grid_1" data-name="Repeat Grid 1" transform="translate(5 65)" clip-path="url(#clip-path)">
      <g transform="translate(-8 -65)">
        <g id="Group_343" data-name="Group 343" transform="translate(-6 -107)">
          <g transform="matrix(1, 0, 0, 1, 9, 107)" filter="url(#Rectangle_4)">
            <g id="Rectangle_4-8" data-name="Rectangle 4" transform="translate(11 78)" fill="#fff" stroke="#3a577f" stroke-width="2">
              <rect width="346.727" height="78" rx="9" stroke="none"/>
              <rect x="1" y="1" width="344.727" height="76" rx="8" fill="none"/>
            </g>
          </g>
        </g>
        <g id="Group_1" data-name="Group 1" transform="translate(38 65)">
          <rect id="Rectangle_5" data-name="Rectangle 5" width="71" height="27" fill="#fff"/>
          <text id="names" transform="translate(8 19)" fill="#2f2d3f" font-size="18" font-family="SegoeUI, Segoe UI"><tspan x="0" y="0">Fred</tspan></text>
        </g>
        <g id="Ellipse_2" data-name="Ellipse 2" transform="translate(88.868 92)" fill="#fff" stroke="#3a577f" stroke-width="1">
          <circle cx="25.5" cy="25.5" r="25.5" stroke="none"/>
          <circle cx="25.5" cy="25.5" r="25" fill="none"/>
        </g>
        <text id="scores" transform="translate(289.737 138)" fill="#e63622" font-size="49" font-family="SegoeUI, Segoe UI"><tspan x="-86.348" y="0">+24</tspan></text>
        <text id="_65" data-name="65" transform="translate(321.727 138)" fill="#a13124" font-size="20" font-family="SegoeUI, Segoe UI"><tspan x="0" y="0">67</tspan></text>
        <path id="Path_1" data-name="Path 1" d="M581.3,350h16l4-12-8,4-4-8-4,8-8-4Z" transform="translate(-534.3 -223)" fill="#b5b5b5" stroke="#2f2d3f" stroke-linejoin="round" stroke-width="2"/>
        <path id="Path_2" data-name="Path 2" d="M156.932,348.434" transform="translate(-93 -225)" fill="none" stroke="#707070" stroke-width="1"/>
      </g>
      <g transform="translate(-8 38)">
        <g id="Group_343-2" data-name="Group 343" transform="translate(-6 -107)">
          <g transform="matrix(1, 0, 0, 1, 9, 4)" filter="url(#Rectangle_4-2)">
            <g id="Rectangle_4-9" data-name="Rectangle 4" transform="translate(11 181)" fill="#fff" stroke="#3a577f" stroke-width="2">
              <rect width="346.727" height="78" rx="9" stroke="none"/>
              <rect x="1" y="1" width="344.727" height="76" rx="8" fill="none"/>
            </g>
          </g>
        </g>
        <g id="Group_1-2" data-name="Group 1" transform="translate(38 65)">
          <rect id="Rectangle_5-2" data-name="Rectangle 5" width="71" height="27" fill="#fff"/>
          <text id="Name" transform="translate(8 19)" fill="#2f2d3f" font-size="18" font-family="SegoeUI, Segoe UI"><tspan x="0" y="0">Paulo</tspan></text>
        </g>
        <g id="Ellipse_2-2" data-name="Ellipse 2" transform="translate(88.868 92)" fill="#fff" stroke="#3a577f" stroke-width="1">
          <circle cx="25.5" cy="25.5" r="25.5" stroke="none"/>
          <circle cx="25.5" cy="25.5" r="25" fill="none"/>
        </g>
        <text id="_24" data-name="+24" transform="translate(289.737 138)" fill="#e63622" font-size="49" font-family="SegoeUI, Segoe UI"><tspan x="-59.934" y="0">+5</tspan></text>
        <text id="numbers" transform="translate(321.727 138)" fill="#a13124" font-size="20" font-family="SegoeUI, Segoe UI"><tspan x="0" y="0">37</tspan></text>
        <path id="Path_1-2" data-name="Path 1" d="M581.3,350h16l4-12-8,4-4-8-4,8-8-4Z" transform="translate(-534.3 -223)" fill="#b5b5b5" stroke="#2f2d3f" stroke-linejoin="round" stroke-width="2"/>
        <path id="Path_2-2" data-name="Path 2" d="M156.932,348.434" transform="translate(-93 -225)" fill="none" stroke="#707070" stroke-width="1"/>
      </g>
      <g transform="translate(-8 141)">
        <g id="Group_343-3" data-name="Group 343" transform="translate(-6 -107)">
          <g transform="matrix(1, 0, 0, 1, 9, -99)" filter="url(#Rectangle_4-3)">
            <g id="Rectangle_4-10" data-name="Rectangle 4" transform="translate(11 284)" fill="#fff" stroke="#3a577f" stroke-width="2">
              <rect width="346.727" height="78" rx="9" stroke="none"/>
              <rect x="1" y="1" width="344.727" height="76" rx="8" fill="none"/>
            </g>
          </g>
        </g>
        <g id="Group_1-3" data-name="Group 1" transform="translate(38 65)">
          <rect id="Rectangle_5-3" data-name="Rectangle 5" width="71" height="27" fill="#fff"/>
          <text id="Name-2" data-name="Name" transform="translate(8 19)" fill="#2f2d3f" font-size="18" font-family="SegoeUI, Segoe UI"><tspan x="0" y="0">Max</tspan></text>
        </g>
        <g id="Ellipse_2-3" data-name="Ellipse 2" transform="translate(88.868 92)" fill="#fff" stroke="#3a577f" stroke-width="1">
          <circle cx="25.5" cy="25.5" r="25.5" stroke="none"/>
          <circle cx="25.5" cy="25.5" r="25" fill="none"/>
        </g>
        <text id="_24-2" data-name="+24" transform="translate(289.737 138)" fill="#e63622" font-size="49" font-family="SegoeUI, Segoe UI"><tspan x="-86.348" y="0">+12</tspan></text>
        <text id="_65-2" data-name="65" transform="translate(321.727 138)" fill="#a13124" font-size="20" font-family="SegoeUI, Segoe UI"><tspan x="0" y="0">5</tspan></text>
        <path id="Path_1-3" data-name="Path 1" d="M581.3,350h16l4-12-8,4-4-8-4,8-8-4Z" transform="translate(-534.3 -223)" fill="#b5b5b5" stroke="#2f2d3f" stroke-linejoin="round" stroke-width="2"/>
        <path id="Path_2-3" data-name="Path 2" d="M156.932,348.434" transform="translate(-93 -225)" fill="none" stroke="#707070" stroke-width="1"/>
      </g>
      <g transform="translate(-8 244)">
        <g id="Group_343-4" data-name="Group 343" transform="translate(-6 -107)">
          <g transform="matrix(1, 0, 0, 1, 9, -202)" filter="url(#Rectangle_4-4)">
            <g id="Rectangle_4-11" data-name="Rectangle 4" transform="translate(11 387)" fill="#fff" stroke="#3a577f" stroke-width="2">
              <rect width="346.727" height="78" rx="9" stroke="none"/>
              <rect x="1" y="1" width="344.727" height="76" rx="8" fill="none"/>
            </g>
          </g>
        </g>
        <g id="Group_1-4" data-name="Group 1" transform="translate(38 65)">
          <rect id="Rectangle_5-4" data-name="Rectangle 5" width="71" height="27" fill="#fff"/>
          <text id="Name-3" data-name="Name" transform="translate(8 19)" fill="#2f2d3f" font-size="18" font-family="SegoeUI, Segoe UI"><tspan x="0" y="0">Frank</tspan></text>
        </g>
        <g id="Ellipse_2-4" data-name="Ellipse 2" transform="translate(88.868 92)" fill="#fff" stroke="#3a577f" stroke-width="1">
          <circle cx="25.5" cy="25.5" r="25.5" stroke="none"/>
          <circle cx="25.5" cy="25.5" r="25" fill="none"/>
        </g>
        <text id="_24-3" data-name="+24" transform="translate(289.737 138)" fill="#e63622" font-size="49" font-family="SegoeUI, Segoe UI"><tspan x="-46.009" y="0">-2</tspan></text>
        <text id="_65-3" data-name="65" transform="translate(321.727 138)" fill="#a13124" font-size="20" font-family="SegoeUI, Segoe UI"><tspan x="0" y="0">36</tspan></text>
        <path id="Path_1-4" data-name="Path 1" d="M581.3,350h16l4-12-8,4-4-8-4,8-8-4Z" transform="translate(-534.3 -223)" fill="#b5b5b5" stroke="#2f2d3f" stroke-linejoin="round" stroke-width="2"/>
        <path id="Path_2-4" data-name="Path 2" d="M156.932,348.434" transform="translate(-93 -225)" fill="none" stroke="#707070" stroke-width="1"/>
      </g>
      <g transform="translate(-8 347)">
        <g id="Group_343-5" data-name="Group 343" transform="translate(-6 -107)">
          <g transform="matrix(1, 0, 0, 1, 9, -305)" filter="url(#Rectangle_4-5)">
            <g id="Rectangle_4-12" data-name="Rectangle 4" transform="translate(11 490)" fill="#fff" stroke="#3a577f" stroke-width="2">
              <rect width="346.727" height="78" rx="9" stroke="none"/>
              <rect x="1" y="1" width="344.727" height="76" rx="8" fill="none"/>
            </g>
          </g>
        </g>
        <g id="Group_1-5" data-name="Group 1" transform="translate(38 65)">
          <rect id="Rectangle_5-5" data-name="Rectangle 5" width="71" height="27" fill="#fff"/>
          <text id="Name-4" data-name="Name" transform="translate(8 19)" fill="#2f2d3f" font-size="18" font-family="SegoeUI, Segoe UI"><tspan x="0" y="0">Remz</tspan></text>
        </g>
        <g id="Ellipse_2-5" data-name="Ellipse 2" transform="translate(88.868 92)" fill="#fff" stroke="#3a577f" stroke-width="1">
          <circle cx="25.5" cy="25.5" r="25.5" stroke="none"/>
          <circle cx="25.5" cy="25.5" r="25" fill="none"/>
        </g>
        <text id="_24-4" data-name="+24" transform="translate(289.737 138)" fill="#e63622" font-size="49" font-family="SegoeUI, Segoe UI"><tspan x="-112.762" y="0">+110</tspan></text>
        <text id="_65-4" data-name="65" transform="translate(321.727 138)" fill="#a13124" font-size="20" font-family="SegoeUI, Segoe UI"><tspan x="0" y="0">0</tspan></text>
        <path id="Path_1-5" data-name="Path 1" d="M581.3,350h16l4-12-8,4-4-8-4,8-8-4Z" transform="translate(-534.3 -223)" fill="#b5b5b5" stroke="#2f2d3f" stroke-linejoin="round" stroke-width="2"/>
        <path id="Path_2-5" data-name="Path 2" d="M156.932,348.434" transform="translate(-93 -225)" fill="none" stroke="#707070" stroke-width="1"/>
      </g>
      <g transform="translate(-8 450)">
        <g id="Group_343-6" data-name="Group 343" transform="translate(-6 -107)">
          <g transform="matrix(1, 0, 0, 1, 9, -408)" filter="url(#Rectangle_4-6)">
            <g id="Rectangle_4-13" data-name="Rectangle 4" transform="translate(11 593)" fill="#fff" stroke="#3a577f" stroke-width="2">
              <rect width="346.727" height="78" rx="9" stroke="none"/>
              <rect x="1" y="1" width="344.727" height="76" rx="8" fill="none"/>
            </g>
          </g>
        </g>
        <g id="Group_1-6" data-name="Group 1" transform="translate(38 65)">
          <rect id="Rectangle_5-6" data-name="Rectangle 5" width="71" height="27" fill="#fff"/>
          <text id="Name-5" data-name="Name" transform="translate(8 19)" fill="#2f2d3f" font-size="18" font-family="SegoeUI, Segoe UI"><tspan x="0" y="0">Marie</tspan></text>
        </g>
        <g id="Ellipse_2-6" data-name="Ellipse 2" transform="translate(88.868 92)" fill="#fff" stroke="#3a577f" stroke-width="1">
          <circle cx="25.5" cy="25.5" r="25.5" stroke="none"/>
          <circle cx="25.5" cy="25.5" r="25" fill="none"/>
        </g>
        <text id="_24-5" data-name="+24" transform="translate(289.737 138)" fill="#e63622" font-size="49" font-family="SegoeUI, Segoe UI"><tspan x="-59.934" y="0">+1</tspan></text>
        <text id="_65-5" data-name="65" transform="translate(321.727 138)" fill="#a13124" font-size="20" font-family="SegoeUI, Segoe UI"><tspan x="0" y="0">-2</tspan></text>
        <path id="Path_1-6" data-name="Path 1" d="M581.3,350h16l4-12-8,4-4-8-4,8-8-4Z" transform="translate(-534.3 -223)" fill="#b5b5b5" stroke="#2f2d3f" stroke-linejoin="round" stroke-width="2"/>
        <path id="Path_2-6" data-name="Path 2" d="M156.932,348.434" transform="translate(-93 -225)" fill="none" stroke="#707070" stroke-width="1"/>
      </g>
      <g transform="translate(-8 553)">
        <g id="Group_343-7" data-name="Group 343" transform="translate(-6 -107)">
          <g transform="matrix(1, 0, 0, 1, 9, -511)" filter="url(#Rectangle_4-7)">
            <g id="Rectangle_4-14" data-name="Rectangle 4" transform="translate(11 696)" fill="#fff" stroke="#3a577f" stroke-width="2">
              <rect width="346.727" height="78" rx="9" stroke="none"/>
              <rect x="1" y="1" width="344.727" height="76" rx="8" fill="none"/>
            </g>
          </g>
        </g>
        <g id="Group_1-7" data-name="Group 1" transform="translate(38 65)">
          <rect id="Rectangle_5-7" data-name="Rectangle 5" width="71" height="27" fill="#fff"/>
          <text id="Name-6" data-name="Name" transform="translate(8 19)" fill="#2f2d3f" font-size="18" font-family="SegoeUI, Segoe UI"><tspan x="0" y="0">Julie</tspan></text>
        </g>
        <g id="Ellipse_2-7" data-name="Ellipse 2" transform="translate(88.868 92)" fill="#fff" stroke="#3a577f" stroke-width="1">
          <circle cx="25.5" cy="25.5" r="25.5" stroke="none"/>
          <circle cx="25.5" cy="25.5" r="25" fill="none"/>
        </g>
        <text id="_24-6" data-name="+24" transform="translate(289.737 138)" fill="#e63622" font-size="49" font-family="SegoeUI, Segoe UI"><tspan x="-86.348" y="0">+44</tspan></text>
        <text id="_65-6" data-name="65" transform="translate(321.727 138)" fill="#a13124" font-size="20" font-family="SegoeUI, Segoe UI"><tspan x="0" y="0">110</tspan></text>
        <path id="Path_1-7" data-name="Path 1" d="M581.3,350h16l4-12-8,4-4-8-4,8-8-4Z" transform="translate(-534.3 -223)" fill="#b5b5b5" stroke="#2f2d3f" stroke-linejoin="round" stroke-width="2"/>
        <path id="Path_2-7" data-name="Path 2" d="M156.932,348.434" transform="translate(-93 -225)" fill="none" stroke="#707070" stroke-width="1"/>
      </g>
    </g>
    <g id="Menu" transform="translate(-335 -163)">
      <g transform="matrix(1, 0, 0, 1, 335, 163)" filter="url(#teal_circle)">
        <circle id="teal_circle-2" data-name="teal circle" cx="28" cy="28" r="28" transform="translate(282 554)" fill="#ea684b"/>
      </g>
      <g id="Repeat_Grid_2" data-name="Repeat Grid 2" transform="translate(630.5 737)" clip-path="url(#clip-path-2)">
        <g transform="translate(-630.5 -744)">
          <line id="Line_3" data-name="Line 3" x2="29" transform="translate(630.5 745.5)" fill="none" stroke="#fff" stroke-width="3"/>
        </g>
        <g transform="translate(-630.5 -737)">
          <line id="Line_3-2" data-name="Line 3" x2="29" transform="translate(630.5 745.5)" fill="none" stroke="#fff" stroke-width="3"/>
        </g>
        <g transform="translate(-630.5 -730)">
          <line id="Line_3-3" data-name="Line 3" x2="29" transform="translate(630.5 745.5)" fill="none" stroke="#fff" stroke-width="3"/>
        </g>
      </g>
    </g>
    <g id="Symbol_72_2" data-name="Symbol 72 – 2" transform="translate(0 -1)">
      <g id="Header_Round_Picker" data-name="Header Round Picker" transform="translate(0 -1)">
        <g transform="matrix(1, 0, 0, 1, 0, 2)" filter="url(#Rectangle_7)">
          <rect id="Rectangle_7-2" data-name="Rectangle 7" width="375" height="50" transform="translate(0 -1)" fill="#2f2d3f"/>
        </g>
        <text id="Round_3-2" data-name="Round 3" transform="translate(188 35)" fill="#fff" font-size="33" font-family="JavaneseText, Javanese Text"><tspan x="0" y="0">Round 3</tspan></text>
        <g id="path-3" data-name="path">
          <path id="path-4" data-name="path" d="M7,10l5,5,5-5Z" transform="translate(317 17)" fill="#fff" fill-rule="evenodd"/>
        </g>
      </g>
      <g id="path-5" data-name="path" transform="translate(6 4)">
        <path id="path-6" data-name="path" d="M20,11H7.8l5.6-5.6L12,4,4,12l8,8,1.4-1.4L7.8,13H20V11Z" transform="translate(9 10)" fill="#fff" fill-rule="evenodd"/>
      </g>
    </g>
  </g>
</svg>
