<svg xmlns="http://www.w3.org/2000/svg" xmlns:xlink="http://www.w3.org/1999/xlink" width="1265" height="438" viewBox="0 0 1265 438">
  <defs>
    <filter id="Line_1" x="25.698" y="210.698" width="80.604" height="49.604" filterUnits="userSpaceOnUse">
      <feOffset dx="3" dy="3" input="SourceAlpha"/>
      <feGaussianBlur stdDeviation="3" result="blur"/>
      <feFlood flood-opacity="0.161"/>
      <feComposite operator="in" in2="blur"/>
      <feComposite in="SourceGraphic"/>
    </filter>
    <filter id="Line_2" x="81.698" y="210.698" width="80.604" height="49.604" filterUnits="userSpaceOnUse">
      <feOffset dx="3" dy="3" input="SourceAlpha"/>
      <feGaussianBlur stdDeviation="3" result="blur-2"/>
      <feFlood flood-opacity="0.161"/>
      <feComposite operator="in" in2="blur-2"/>
      <feComposite in="SourceGraphic"/>
    </filter>
    <filter id="teal_circle" x="17" y="14" width="92" height="92" filterUnits="userSpaceOnUse">
      <feOffset dy="12" input="SourceAlpha"/>
      <feGaussianBlur stdDeviation="6" result="blur-3"/>
      <feFlood flood-opacity="0.259"/>
      <feComposite operator="in" in2="blur-3"/>
      <feComposite in="SourceGraphic"/>
    </filter>
    <clipPath id="clip-path">
      <rect width="29" height="17" fill="none"/>
    </clipPath>
    <filter id="teal_circle-2" x="88" y="14" width="92" height="92" filterUnits="userSpaceOnUse">
      <feOffset dy="12" input="SourceAlpha"/>
      <feGaussianBlur stdDeviation="6" result="blur-4"/>
      <feFlood flood-opacity="0.259"/>
      <feComposite operator="in" in2="blur-4"/>
      <feComposite in="SourceGraphic"/>
    </filter>
    <filter id="teal_circle-3" x="107" y="95" width="66" height="66" filterUnits="userSpaceOnUse">
      <feOffset dy="12" input="SourceAlpha"/>
      <feGaussianBlur stdDeviation="6" result="blur-5"/>
      <feFlood flood-opacity="0.259"/>
      <feComposite operator="in" in2="blur-5"/>
      <feComposite in="SourceGraphic"/>
    </filter>
    <filter id="teal_circle-4" x="152" y="95" width="66" height="66" filterUnits="userSpaceOnUse">
      <feOffset dy="12" input="SourceAlpha"/>
      <feGaussianBlur stdDeviation="6" result="blur-6"/>
      <feFlood flood-opacity="0.259"/>
      <feComposite operator="in" in2="blur-6"/>
      <feComposite in="SourceGraphic"/>
    </filter>
    <filter id="teal_circle-5" x="197" y="95" width="66" height="66" filterUnits="userSpaceOnUse">
      <feOffset dy="12" input="SourceAlpha"/>
      <feGaussianBlur stdDeviation="6" result="blur-7"/>
      <feFlood flood-opacity="0.259"/>
      <feComposite operator="in" in2="blur-7"/>
      <feComposite in="SourceGraphic"/>
    </filter>
    <filter id="teal_circle-6" x="62" y="95" width="66" height="66" filterUnits="userSpaceOnUse">
      <feOffset dy="12" input="SourceAlpha"/>
      <feGaussianBlur stdDeviation="6" result="blur-8"/>
      <feFlood flood-opacity="0.259"/>
      <feComposite operator="in" in2="blur-8"/>
      <feComposite in="SourceGraphic"/>
    </filter>
    <filter id="teal_circle-7" x="17" y="95" width="66" height="66" filterUnits="userSpaceOnUse">
      <feOffset dy="12" input="SourceAlpha"/>
      <feGaussianBlur stdDeviation="6" result="blur-9"/>
      <feFlood flood-opacity="0.259"/>
      <feComposite operator="in" in2="blur-9"/>
      <feComposite in="SourceGraphic"/>
    </filter>
    <filter id="teal_circle-8" x="242" y="95" width="66" height="66" filterUnits="userSpaceOnUse">
      <feOffset dy="12" input="SourceAlpha"/>
      <feGaussianBlur stdDeviation="6" result="blur-10"/>
      <feFlood flood-opacity="0.259"/>
      <feComposite operator="in" in2="blur-10"/>
      <feComposite in="SourceGraphic"/>
    </filter>
    <clipPath id="clip-Icons">
      <rect width="1265" height="438"/>
    </clipPath>
    <clipPath id="clip">
      <use xlink:href="#fill"/>
    </clipPath>
    <clipPath id="clip-2">
      <use xlink:href="#fill-2"/>
    </clipPath>
  </defs>
  <g id="Icons" clip-path="url(#clip-Icons)">
    <rect width="1265" height="438" fill="rgba(255,255,255,0)"/>
    <g id="Crown" transform="translate(-101 -180)">
      <path id="Path_1" data-name="Path 1" d="M581.3,350h16l4-12-8,4-4-8-4,8-8-4Z" transform="translate(-441.3 2)" fill="#b5b5b5" stroke="#2f2d3f" stroke-linejoin="round" stroke-width="2"/>
      <path id="Path_2" data-name="Path 2" d="M156.932,348.434" fill="none" stroke="#707070" stroke-width="1"/>
    </g>
    <g id="Button_Down" data-name="Button Down" transform="translate(-96.5 -222.5)">
      <g transform="matrix(1, 0, 0, 1, 96.5, 222.5)" filter="url(#Line_1)">
        <line id="Line_1-2" data-name="Line 1" x1="56" y1="25" transform="translate(35 220)" fill="none" stroke="#2f2d3f" stroke-linecap="round" stroke-width="5"/>
      </g>
      <g transform="matrix(1, 0, 0, 1, 96.5, 222.5)" filter="url(#Line_2)">
        <line id="Line_2-2" data-name="Line 2" y1="25" x2="56" transform="translate(91 220)" fill="none" stroke="#2f2d3f" stroke-linecap="round" stroke-width="5"/>
      </g>
    </g>
    <g id="path" transform="translate(-135 200)">
      <path id="path-2" data-name="path" d="M7,10l5,5,5-5Z" transform="translate(317 17)" fill="#fff" fill-rule="evenodd"/>
    </g>
    <g id="Avatar_recipient" data-name="Avatar recipient" transform="translate(146.132 8)">
      <g id="Ellipse_2" data-name="Ellipse 2" transform="translate(94.868 199)" fill="#fff" stroke="#3a577f" stroke-width="1">
        <circle cx="25.5" cy="25.5" r="25.5" stroke="none"/>
        <circle cx="25.5" cy="25.5" r="25" fill="none"/>
      </g>
    </g>
    <g id="Menu" transform="translate(-582 -697)">
      <g transform="matrix(1, 0, 0, 1, 582, 697)" filter="url(#teal_circle)">
        <circle id="teal_circle-9" data-name="teal circle" cx="28" cy="28" r="28" transform="translate(35 20)" fill="#ea684b"/>
      </g>
      <g id="Repeat_Grid_2" data-name="Repeat Grid 2" transform="translate(630.5 737)" clip-path="url(#clip-path)">
        <g transform="translate(-630.5 -744)">
          <line id="Line_3" data-name="Line 3" x2="29" transform="translate(630.5 745.5)" fill="none" stroke="#fff" stroke-width="3"/>
        </g>
        <g transform="translate(-630.5 -737)">
          <line id="Line_3-2" data-name="Line 3" x2="29" transform="translate(630.5 745.5)" fill="none" stroke="#fff" stroke-width="3"/>
        </g>
        <g transform="translate(-630.5 -730)">
          <line id="Line_3-3" data-name="Line 3" x2="29" transform="translate(630.5 745.5)" fill="none" stroke="#fff" stroke-width="3"/>
        </g>
      </g>
    </g>
    <g id="Symbol_18_2" data-name="Symbol 18 – 2" transform="translate(-185 -523)">
      <g transform="matrix(1, 0, 0, 1, 185, 523)" filter="url(#teal_circle-2)">
        <circle id="teal_circle-10" data-name="teal circle" cx="28" cy="28" r="28" transform="translate(106 20)" fill="#ea684b"/>
      </g>
      <line id="Line_15" data-name="Line 15" y1="21" x2="21" transform="translate(308.5 560.5)" fill="none" stroke="#f5f5f5" stroke-width="3"/>
      <line id="Line_16" data-name="Line 16" x1="21" y1="21" transform="translate(308.5 560.5)" fill="none" stroke="#f5f5f5" stroke-width="3"/>
    </g>
    <g id="Symbol_17_2" data-name="Symbol 17 – 2" transform="translate(-29 -461)">
      <g transform="matrix(1, 0, 0, 1, 29, 461)" filter="url(#teal_circle-3)">
        <circle id="teal_circle-11" data-name="teal circle" cx="15" cy="15" r="15" transform="translate(125 101)" fill="#2f2d3f"/>
      </g>
      <path id="Path_3" data-name="Path 3" d="M940.224,780.745l-2.031-2.354V767.2h4.077v11.193Z" transform="translate(51.451 -635.23) rotate(45)" fill="#fff" stroke="#fff" stroke-linejoin="round" stroke-width="2"/>
    </g>
    <g id="Symbol_16_2" data-name="Symbol 16 – 2" transform="translate(16 -420)">
      <g transform="matrix(1, 0, 0, 1, -16, 420)" filter="url(#teal_circle-4)">
        <circle id="teal_circle-12" data-name="teal circle" cx="15" cy="15" r="15" transform="translate(170 101)" fill="#2f2d3f"/>
      </g>
      <g id="Group_345" data-name="Group 345" transform="translate(-66 -93)">
        <line id="Line_4" data-name="Line 4" y2="13.126" transform="translate(229.047 622)" fill="none" stroke="#fff" stroke-linecap="square" stroke-width="1"/>
        <rect id="Rectangle_8" data-name="Rectangle 8" width="1.79" height="1.79" transform="translate(229.644 622.597)" fill="#fff"/>
        <rect id="Rectangle_9" data-name="Rectangle 9" width="1.79" height="1.79" transform="translate(231.434 624.387)" fill="#fff"/>
        <rect id="Rectangle_10" data-name="Rectangle 10" width="1.79" height="1.79" transform="translate(229.644 626.176)" fill="#fff"/>
        <rect id="Rectangle_11" data-name="Rectangle 11" width="1.79" height="1.79" transform="translate(231.434 627.966)" fill="#fff"/>
        <line id="Line_5" data-name="Line 5" y2="13.126" transform="translate(240.98 622)" fill="none" stroke="#fff" stroke-linecap="square" stroke-width="1"/>
        <rect id="Rectangle_12" data-name="Rectangle 12" width="1.79" height="1.79" transform="translate(233.223 622.597)" fill="#fff"/>
        <rect id="Rectangle_13" data-name="Rectangle 13" width="1.79" height="1.79" transform="translate(235.013 624.387)" fill="#fff"/>
        <rect id="Rectangle_14" data-name="Rectangle 14" width="1.79" height="1.79" transform="translate(233.223 626.176)" fill="#fff"/>
        <rect id="Rectangle_15" data-name="Rectangle 15" width="1.79" height="1.79" transform="translate(235.013 627.966)" fill="#fff"/>
        <rect id="Rectangle_16" data-name="Rectangle 16" width="1.79" height="1.79" transform="translate(236.803 622.597)" fill="#fff"/>
        <rect id="Rectangle_17" data-name="Rectangle 17" width="1.79" height="1.79" transform="translate(238.593 624.387)" fill="#fff"/>
        <rect id="Rectangle_18" data-name="Rectangle 18" width="1.79" height="1.79" transform="translate(236.803 626.176)" fill="#fff"/>
        <rect id="Rectangle_19" data-name="Rectangle 19" width="1.79" height="1.79" transform="translate(238.593 627.966)" fill="#fff"/>
      </g>
    </g>
    <g id="Symbol_15_2" data-name="Symbol 15 – 2" transform="translate(16 -461)">
      <g transform="matrix(1, 0, 0, 1, -16, 461)" filter="url(#teal_circle-5)">
        <circle id="teal_circle-13" data-name="teal circle" cx="15" cy="15" r="15" transform="translate(215 101)" fill="#2f2d3f"/>
      </g>
      <circle id="Ellipse_3" data-name="Ellipse 3" cx="3" cy="3" r="3" transform="translate(204 574)" fill="#fff"/>
      <circle id="Ellipse_4" data-name="Ellipse 4" cx="3" cy="3" r="3" transform="translate(216 567)" fill="#fff"/>
      <circle id="Ellipse_5" data-name="Ellipse 5" cx="3" cy="3" r="3" transform="translate(216 581)" fill="#fff"/>
      <line id="Line_6" data-name="Line 6" y1="7" x2="12" transform="translate(207 570)" fill="none" stroke="#fff" stroke-width="2"/>
      <line id="Line_7" data-name="Line 7" x2="12" y2="7" transform="translate(207 577)" fill="none" stroke="#fff" stroke-width="2"/>
    </g>
    <g id="Symbol_14_2" data-name="Symbol 14 – 2" transform="translate(-164 -461)">
      <g id="Small_button" data-name="Small button" transform="translate(44 41)">
        <g transform="matrix(1, 0, 0, 1, 120, 420)" filter="url(#teal_circle-6)">
          <circle id="teal_circle-14" data-name="teal circle" cx="15" cy="15" r="15" transform="translate(80 101)" fill="#2f2d3f"/>
        </g>
      </g>
      <path id="Path_6" data-name="Path 6" d="M1171,605h-10V590h7l3,3Z" transform="translate(-907 -21)" fill="none" stroke="#fff" stroke-width="1"/>
      <line id="Line_8" data-name="Line 8" x2="6" transform="translate(256 573)" fill="none" stroke="#fff" stroke-width="1"/>
      <line id="Line_9" data-name="Line 9" x2="6" transform="translate(256 575)" fill="none" stroke="#fff" stroke-width="1"/>
      <line id="Line_10" data-name="Line 10" x2="6" transform="translate(256 577)" fill="none" stroke="#fff" stroke-width="1"/>
      <line id="Line_11" data-name="Line 11" x2="6" transform="translate(256 579)" fill="none" stroke="#fff" stroke-width="1"/>
      <line id="Line_12" data-name="Line 12" x2="6" transform="translate(256 581)" fill="none" stroke="#fff" stroke-width="1"/>
      <line id="Line_13" data-name="Line 13" y1="3" x2="3" transform="translate(262 568)" fill="none" stroke="#ea684b" stroke-linecap="round" stroke-width="1"/>
      <line id="Line_14" data-name="Line 14" x2="3" y2="3" transform="translate(262 568)" fill="none" stroke="#ea684b" stroke-linecap="round" stroke-width="1"/>
      <g id="Rectangle_20" data-name="Rectangle 20" transform="translate(262 569.2)" fill="#fff" stroke="#ea684b" stroke-linecap="round" stroke-linejoin="round" stroke-width="1">
        <rect id="fill" width="3" height="0.6" stroke="none"/>
        <path d="M0,0.10000002384185791h3M2.5,0v0.6000000238418579M3,0.5h-3M0.5,0.6000000238418579v-0.6000000238418579" fill="none" clip-path="url(#clip)"/>
      </g>
      <g id="Rectangle_21" data-name="Rectangle 21" transform="translate(263.8 568) rotate(90)" fill="#fff" stroke="#ea684b" stroke-linecap="round" stroke-linejoin="round" stroke-width="1">
        <rect id="fill-2" width="3" height="0.6" stroke="none"/>
        <path d="M0,0.10000002384185791h3M2.5,0v0.6000000238418579M3,0.5h-3M0.5,0.6000000238418579v-0.6000000238418579" fill="none" clip-path="url(#clip-2)"/>
      </g>
    </g>
    <g id="Symbol_13_2" data-name="Symbol 13 – 2" transform="translate(-165 -420)">
      <g id="Small_button-2" data-name="Small button">
        <g transform="matrix(1, 0, 0, 1, 165, 420)" filter="url(#teal_circle-7)">
          <circle id="teal_circle-15" data-name="teal circle" cx="15" cy="15" r="15" transform="translate(35 101)" fill="#2f2d3f"/>
        </g>
      </g>
      <path id="Path_4" data-name="Path 4" d="M1096,535l4-4-1,4,1,4-.542-.542Z" transform="translate(-886 1)" fill="#fff"/>
      <path id="Path_5" data-name="Path 5" d="M1096,535l4-4-1,4,1,4-.542-.542Z" transform="translate(-881 1)" fill="#fff"/>
    </g>
    <g id="Small_button-3" data-name="Small button" transform="translate(60 -420)">
      <g transform="matrix(1, 0, 0, 1, -60, 420)" filter="url(#teal_circle-8)">
        <circle id="teal_circle-16" data-name="teal circle" cx="15" cy="15" r="15" transform="translate(260 101)" fill="#2f2d3f"/>
      </g>
    </g>
  </g>
</svg>
